<svg xmlns="http://www.w3.org/2000/svg" width="511.999" height="401.508" viewBox="0 0 511.999 401.508">
  <g id="camera-svgrepo-com_2_" data-name="camera-svgrepo-com (2)" transform="translate(0.001 -55.245)">
    <g id="Group_17" data-name="Group 17">
      <g id="Group_16" data-name="Group 16">
        <path id="Path_1" data-name="Path 1" d="M315.511,170.277a118.881,118.881,0,1,0,38.514,231.377,8.926,8.926,0,0,0-5.781-16.891,101.13,101.13,0,1,1,27.539-14.52,8.926,8.926,0,1,0,10.662,14.318,118.884,118.884,0,0,0-70.934-214.284Z" fill="#433e3e"/>
      </g>
    </g>
    <g id="Group_19" data-name="Group 19">
      <g id="Group_18" data-name="Group 18">
        <path id="Path_2" data-name="Path 2" d="M315.51,205.418a83.282,83.282,0,0,0-47.226,14.591,8.926,8.926,0,1,0,10.081,14.734,65.793,65.793,0,1,1-20.876,23.174,8.926,8.926,0,1,0-15.711-8.478,83.745,83.745,0,1,0,73.732-44.021Z" fill="#433e3e"/>
      </g>
    </g>
    <g id="Group_21" data-name="Group 21">
      <g id="Group_20" data-name="Group 20">
        <path id="Path_3" data-name="Path 3" d="M96.879,157.8A41.419,41.419,0,1,0,138.3,199.217,41.465,41.465,0,0,0,96.879,157.8Zm0,64.984a23.565,23.565,0,1,1,23.565-23.565A23.592,23.592,0,0,1,96.879,222.782Z" fill="#433e3e"/>
      </g>
    </g>
    <g id="Group_23" data-name="Group 23">
      <g id="Group_22" data-name="Group 22">
        <path id="Path_4" data-name="Path 4" d="M118.2,351.769H75.556a26.188,26.188,0,1,0,0,52.376H118.2a26.188,26.188,0,0,0,0-52.376Zm0,34.523H75.556a8.335,8.335,0,1,1,0-16.67H118.2a8.335,8.335,0,0,1,0,16.67Z" fill="#433e3e"/>
      </g>
    </g>
    <g id="Group_25" data-name="Group 25">
      <g id="Group_24" data-name="Group 24">
        <path id="Path_5" data-name="Path 5" d="M465.294,121.557h-2.516c-4.1,0-6.7-5.181-11.653-17-8.233-19.636-20.677-49.311-66.194-49.311H318.549c-45.519,0-57.961,29.676-66.2,49.312-4.956,11.82-7.557,17-11.653,17H198.206V104.864a29.346,29.346,0,0,0-29.312-29.312H117.265a29.346,29.346,0,0,0-29.312,29.312v16.692H46.705A46.761,46.761,0,0,0,0,168.263v69.771a8.927,8.927,0,1,0,17.854,0V168.263a28.885,28.885,0,0,1,28.852-28.852H373.242a8.927,8.927,0,0,0,0-17.854H264.312c1.654-3.3,3.1-6.753,4.506-10.1C276.726,92.6,284.9,73.1,318.548,73.1H384.93c33.645,0,41.822,19.5,49.73,38.361,1.4,3.345,2.852,6.8,4.507,10.1H408.948a8.927,8.927,0,1,0,0,17.854h56.346a28.885,28.885,0,0,1,28.852,28.852V410.049A28.885,28.885,0,0,1,465.294,438.9H46.705a28.885,28.885,0,0,1-28.852-28.852V273.74A8.927,8.927,0,1,0,0,273.74V410.048a46.758,46.758,0,0,0,46.706,46.705H465.293A46.758,46.758,0,0,0,512,410.048V168.263A46.756,46.756,0,0,0,465.294,121.557Zm-284.942,0H105.806V104.864a11.471,11.471,0,0,1,11.458-11.458h51.629a11.47,11.47,0,0,1,11.458,11.458v16.692Z" fill="#433e3e"/>
      </g>
    </g>
  </g>
</svg>
